<svg width="235" height="41" viewBox="0 0 235 41" xmlns="http://www.w3.org/2000/svg"><g fill-rule="nonzero" fill="none"><path d="M47.863 27.653a28.998 28.998 0 01-2.13 2.255c-.399.376-.804.74-1.222 1.091.006-.012.019-.025.025-.043A13.628 13.628 0 0045.987 20.8a16.043 16.043 0 00-.456-1.516c-1.54-4.393-4.74-7.937-9.018-9.97a18.135 18.135 0 00-13.632-.801c-4.512 1.516-8.163 4.658-10.267 8.842-1.26 2.508-1.882 5.213-1.838 7.925C12 18.053 18.445 12.538 26.221 12.525c8.625-.018 15.691 6.822 15.717 15.208.012 5.675-3.156 10.63-7.871 13.267a26.783 26.783 0 005.672-2.422 26.792 26.792 0 005.995-4.658c3.847-3.993 6.413-9.17 7.06-14.906a27.242 27.242 0 01-4.93 8.64z" fill="#1A1B25"/><path d="M10.52 31.131a19.04 19.04 0 01.956-14.737A19.39 19.39 0 0122.642 6.6c4.91-1.681 10.183-1.368 14.84.891 4.659 2.259 8.144 6.18 9.823 11.055.038.106.07.207.102.313C46.43 8.282 37.457 0 26.527 0 14.948 0 5.556 9.292 5.556 20.76c0 3.715.989 7.197 2.713 10.214A27.676 27.676 0 010 18.772C1.147 29.218 8.447 37.838 18.231 41c-3.605-2.328-6.299-5.766-7.712-9.869z" fill="#C22C2F"/><g fill="#1A1B25"><path d="M71.11 20.356c0-3.111 2.27-7.13 8.301-7.13 5.006 0 8.118 2.637 8.118 6.806 0 4.161-3.212 7.454-8.318 7.454-5.773 0-8.101-3.905-8.101-7.13zm13.599.348c0-4.07-2.595-6.601-5.89-6.601-2.311 0-4.94 1.163-4.94 5.695 0 3.783 2.312 6.782 6.166 6.782 1.41 0 4.664-.62 4.664-5.876zM91.759 13.703c.058-.31.184-.476.342-.476.159 0 .284.09.542.566l5.482 10.113 5.464-10.241c.159-.295.26-.438.443-.438s.3.181.358.566l1.828 11.133c.183 1.148.383 1.677.984 1.835.584.166.985.181 1.243.181.184 0 .326.015.326.129 0 .143-.242.196-.526.196-.5 0-3.279-.038-4.08-.09-.459-.038-.584-.091-.584-.197 0-.09.084-.143.217-.204.117-.038.184-.272.1-.785l-1.185-7.908h-.083l-4.38 8.112c-.459.853-.56 1.02-.743 1.02-.183 0-.383-.363-.7-.907-.484-.838-2.07-3.618-2.311-4.131-.184-.386-1.385-2.53-2.086-3.89h-.084l-1.043 7.092a6.248 6.248 0 00-.058.853c0 .348.259.506.6.582.36.076.643.09.843.09.159 0 .3.038.3.129 0 .166-.183.204-.483.204-.843 0-1.752-.053-2.111-.053-.384 0-1.343.053-1.986.053-.2 0-.358-.038-.358-.204 0-.09.116-.128.325-.128.159 0 .3 0 .6-.053.56-.106.727-.816.827-1.435l1.977-11.714zM112.024 18.763c0-2.764 0-3.27-.041-3.86-.042-.619-.2-.906-.868-1.034-.159-.038-.5-.053-.784-.053-.217 0-.342-.038-.342-.166 0-.129.141-.166.442-.166.542 0 1.126.015 1.627.015.525.015.984.037 1.268.037.642 0 4.639 0 5.022-.015.384-.037.701-.075.868-.105.1-.015.217-.076.326-.076.1 0 .116.076.116.166 0 .129-.1.348-.158 1.186-.017.181-.059.982-.1 1.2-.017.092-.059.197-.2.197-.142 0-.184-.09-.184-.257 0-.128-.017-.438-.117-.657-.142-.324-.342-.543-1.343-.657-.342-.037-2.453-.075-2.853-.075-.1 0-.142.053-.142.181v4.6c0 .128.016.204.142.204.442 0 2.753 0 3.212-.038.484-.038.784-.09.967-.272.142-.144.217-.234.326-.234.083 0 .142.037.142.143 0 .106-.084.4-.159 1.33-.017.362-.083 1.087-.083 1.215 0 .144 0 .348-.184.348-.142 0-.183-.076-.183-.166-.017-.182-.017-.416-.084-.657-.1-.363-.384-.635-1.126-.71-.384-.038-2.37-.053-2.854-.053-.1 0-.116.075-.116.181v1.435c0 .62-.017 2.289 0 2.817.041 1.254.358 1.526 2.41 1.526.526 0 1.37 0 1.886-.22.526-.218.768-.596.901-1.344.042-.196.084-.271.217-.271.159 0 .159.143.159.324 0 .416-.159 1.654-.259 2.017-.142.476-.325.476-1.084.476-1.51 0-2.612-.038-3.48-.053a46.402 46.402 0 00-2.085-.053c-.217 0-.66 0-1.143.015-.46 0-.985.038-1.385.038-.259 0-.4-.053-.4-.181 0-.091.083-.144.325-.144.3 0 .542-.038.726-.075.4-.076.5-.476.584-.997.1-.763.1-2.198.1-3.875v-3.187h-.009zM136.236 26.013c0 .491-.017.53-.259.657-1.31.62-3.278.816-4.839.816-4.922 0-9.277-2.107-9.277-7.13 0-2.907 1.669-4.946 3.496-5.943 1.927-1.058 3.72-1.186 5.406-1.186 1.385 0 3.154.219 3.554.294.426.076 1.126.182 1.585.204.242.015.284.09.284.22 0 .196-.142.71-.142 2.983 0 .294-.058.385-.217.385-.142 0-.183-.09-.2-.234-.058-.416-.158-.997-.684-1.51-.6-.582-2.211-1.42-4.48-1.42-1.102 0-2.57.075-3.98 1.125-1.126.853-1.852 2.22-1.852 4.456 0 3.912 2.753 6.835 6.991 6.835.526 0 1.227 0 1.71-.197.301-.128.384-.362.384-.672V23.99c0-.906 0-1.6-.016-2.145-.017-.619-.2-.906-.868-1.034-.158-.038-.5-.053-.784-.053-.184 0-.3-.038-.3-.144 0-.143.141-.181.425-.181 1.043 0 2.311.053 2.912.053.625 0 1.685-.053 2.352-.053.26 0 .4.038.4.181 0 .106-.116.144-.258.144-.158 0-.3.015-.542.053-.542.09-.743.4-.768 1.034-.016.544-.016 1.277-.016 2.183v1.986h-.017zM142.819 22.6c-.1 0-.142.037-.184.143l-1.084 2.492c-.2.454-.3.892-.3 1.11 0 .325.183.567.8.567h.3c.243 0 .3.038.3.144 0 .143-.116.18-.341.18-.643 0-1.51-.052-2.128-.052-.217 0-1.326.053-2.37.053-.258 0-.383-.038-.383-.181 0-.106.084-.144.242-.144.184 0 .459-.015.626-.038.926-.105 1.31-.725 1.71-1.639l5.04-11.276c.241-.528.358-.725.558-.725.184 0 .3.167.501.582.484.997 3.696 8.278 4.98 11.042.768 1.639 1.344 1.888 1.77 1.979.3.053.6.075.842.075.159 0 .259.015.259.144 0 .143-.184.18-.926.18-.726 0-2.186 0-3.796-.037-.36-.015-.601-.015-.601-.143 0-.106.083-.144.284-.166a.289.289 0 00.183-.416l-1.61-3.746c-.042-.09-.1-.128-.2-.128h-4.472zm4.096-.914c.1 0 .117-.053.1-.106l-1.81-4.471c-.017-.076-.042-.166-.1-.166-.059 0-.1.09-.117.166l-1.852 4.456c-.017.075 0 .128.083.128h3.696v-.007zM164.636 21.958c0 1.744 0 3.111.1 3.874.059.529.184.93.784.997a9.08 9.08 0 001.002.076c.258 0 .342.052.342.143 0 .129-.142.181-.443.181-1.268 0-2.528-.052-3.053-.052-.526 0-1.786.052-2.553.052-.284 0-.426-.037-.426-.18 0-.092.084-.144.3-.144.301 0 .543-.038.727-.076.4-.075.5-.476.584-.997.1-.763.1-2.13.1-3.874v-3.195c0-2.764 0-3.27-.042-3.86-.042-.619-.2-.906-.868-1.034-.158-.038-.5-.053-.784-.053-.2 0-.342-.038-.342-.144 0-.143.158-.18.459-.18.525 0 1.101.014 1.627.014.525.015.984.038 1.268.038.767 0 4.839 0 5.306-.015.384-.015.626-.015.826-.076.117-.037.225-.105.325-.105.084 0 .142.075.142.166 0 .128-.1.347-.158.815-.017.182-.059 1.254-.1 1.473-.017.144-.059.257-.2.257-.142 0-.184-.09-.2-.295 0-.143 0-.438-.118-.694-.141-.257-.559-.529-1.326-.544l-3.095-.053c-.117 0-.184.053-.184.257v4.546c0 .106.017.167.142.167l2.57-.015c.342 0 .625 0 .9-.016.384-.015.66-.09.868-.324.1-.106.142-.182.259-.182.083 0 .117.053.117.167 0 .105-.1.566-.159 1.125-.042.362-.083 1.2-.083 1.33 0 .165 0 .347-.2.347-.117 0-.159-.129-.159-.257 0-.129-.042-.348-.117-.567-.1-.256-.4-.581-1.026-.657-.5-.053-2.628-.053-2.97-.053-.1 0-.142.038-.142.167v1.45zM173.638 18.763c0-2.764 0-3.27-.042-3.86-.041-.619-.2-.906-.867-1.034-.159-.038-.5-.053-.784-.053-.217 0-.343-.038-.343-.166 0-.129.142-.166.443-.166 1.068 0 2.327.052 2.936.052.484 0 1.744-.052 2.47-.052.3 0 .442.037.442.166 0 .128-.117.166-.325.166-.217 0-.342.015-.584.053-.543.09-.701.4-.743 1.034-.041.582-.041 1.088-.041 3.86v2.545c0 2.636.584 3.746 1.568 4.471.901.672 1.827.748 2.511.748.885 0 1.97-.257 2.77-.982 1.102-.997 1.168-2.636 1.168-4.509v-2.273c0-2.764 0-3.27-.041-3.86-.042-.619-.2-.906-.868-1.034-.159-.038-.5-.053-.726-.053-.217 0-.342-.038-.342-.166 0-.129.142-.166.425-.166 1.027 0 2.295.052 2.311.052.242 0 1.51-.052 2.295-.052.284 0 .425.037.425.166 0 .128-.116.166-.358.166a3.18 3.18 0 00-.584.053c-.543.09-.701.4-.743 1.034-.042.582-.042 1.088-.042 3.86v1.948c0 2.017-.217 4.162-1.91 5.476-1.427 1.11-2.87 1.307-4.18 1.307-1.068 0-2.995-.053-4.464-1.254-1.026-.838-1.785-2.183-1.785-4.819v-2.658h.008zM191.618 24.76c.041 1.42.3 1.888.7 2.016.342.106.726.129 1.043.129.217 0 .342.037.342.143 0 .144-.183.181-.458.181-1.31 0-2.111-.052-2.495-.052-.184 0-1.126.052-2.17.052-.258 0-.441-.015-.441-.18 0-.107.116-.144.325-.144.259 0 .626-.015.901-.091.526-.144.6-.672.626-2.258l.183-10.71c0-.362.059-.62.259-.62.217 0 .4.235.742.567.242.234 3.296 3.15 6.233 5.786 1.368 1.238 4.08 3.859 4.422 4.146h.1l-.2-8.164c-.017-1.11-.2-1.458-.685-1.64-.3-.105-.784-.105-1.068-.105-.242 0-.325-.053-.325-.166 0-.144.217-.166.526-.166 1.043 0 2.01.052 2.427.052.217 0 .985-.052 1.97-.052.258 0 .458.015.458.166 0 .105-.116.166-.358.166-.2 0-.36 0-.601.053-.56.143-.726.528-.743 1.548l-.225 11.473c0 .4-.083.566-.259.566-.216 0-.458-.204-.684-.4-1.268-1.088-3.838-3.475-5.923-5.348-2.186-1.963-4.422-4.184-4.78-4.531h-.06l.218 7.583zM209.021 18.763c0-2.764 0-3.27-.041-3.86-.042-.619-.2-.906-.868-1.034-.159-.038-.5-.053-.784-.053-.217 0-.342-.038-.342-.166 0-.129.141-.166.442-.166 1.068 0 2.328.052 2.895.052.626 0 1.885-.052 3.095-.052 2.511 0 5.865 0 8.06 2.077 1 .944 1.952 2.454 1.952 4.622a6.914 6.914 0 01-2.186 5.075c-.926.854-3.012 2.145-6.733 2.145-.726 0-1.543-.053-2.311-.106s-1.468-.105-1.969-.105c-.217 0-.659 0-1.143.015-.459 0-.984.037-1.385.037-.259 0-.4-.052-.4-.18 0-.091.083-.144.325-.144.3 0 .542-.038.726-.076.4-.075.5-.476.584-.997.1-.763.1-2.198.1-3.874v-3.21h-.017zm2.512 1.994c0 1.926.016 3.33.041 3.67.017.454.059 1.179.217 1.382.259.348 1.043.726 2.628.726 2.053 0 3.413-.363 4.622-1.307 1.285-.997 1.686-2.659 1.686-4.532 0-2.31-1.068-3.799-1.928-4.546-1.852-1.601-4.138-1.82-5.706-1.82-.4 0-1.143.052-1.31.128-.184.075-.242.166-.242.362-.017.62-.017 2.198-.017 3.64v2.297h.009zM225.783 27.018c-.326-.128-.384-.22-.384-.62 0-.996.083-2.091.1-2.378.017-.272.083-.476.242-.476.183 0 .2.166.2.31 0 .233.084.619.184.928.442 1.345 1.627 1.836 2.87 1.836 1.81 0 2.695-1.11 2.695-2.077 0-.892-.3-1.73-1.97-2.908l-.926-.657c-2.21-1.564-2.97-2.84-2.97-4.313 0-2.001 1.853-3.436 4.64-3.436 1.3 0 2.152.181 2.669.31.183.037.284.09.284.218 0 .235-.084.763-.084 2.183 0 .4-.058.544-.217.544-.142 0-.2-.106-.2-.325 0-.166-.1-.725-.526-1.2-.3-.348-.884-.892-2.186-.892-1.485 0-2.394.786-2.394 1.873 0 .839.459 1.473 2.127 2.621l.56.385c2.427 1.654 3.295 2.908 3.295 4.637 0 1.058-.442 2.312-1.886 3.165-1 .582-2.127.748-3.195.748-1.16-.008-2.06-.129-2.928-.476z"/></g></g></svg>