<svg width="25" height="18" viewBox="0 0 25 18" xmlns="http://www.w3.org/2000/svg"><path d="M3.661.161l.707.707c-4.422 4.422-4.49 11.55-.204 16.054l.204.21-.707.707C-1.148 13.03-1.219 5.279 3.446.382l.215-.22zm16.707 0c4.809 4.809 4.88 12.56.216 17.457l-.216.22-.707-.706c4.422-4.422 4.49-11.55.204-16.054l-.204-.21.707-.707zM6.004 2.99l.707.707a7.5 7.5 0 00-.168 10.432l.168.174-.707.707a8.5 8.5 0 01-.177-11.837l.177-.183zm12.021 0a8.5 8.5 0 01.178 11.837l-.178.183-.707-.707a7.5 7.5 0 00.169-10.432l-.169-.174.707-.707zM12.015 6a3 3 0 110 6 3 3 0 010-6zm0 1a2 2 0 100 4 2 2 0 000-4z" fill="#F9F9F9" fill-rule="nonzero"/></svg>