<svg width="52" height="12" viewBox="0 0 52 12" xmlns="http://www.w3.org/2000/svg"><path d="M4.672 12V9.376h4.64c2.544 0 4.288-1.792 4.288-4.288C13.6 2.592 11.856.8 9.312.8h-8.8V12h4.16zm3.919-6.144H4.672V4.32h3.84c.416 0 .928 0 .928.768 0 .72-.45.765-.849.768zM25.2 12V8.48h-7.36V.8h-4.16V12H25.2zm4.496 0l.768-2.016h4.768L36 12h4.576L35.936.8H29.76L25.12 12h4.576zm4.448-4.896h-2.592l1.296-3.424 1.296 3.424zM46.352 12V8.32L52.048.8h-4.8l-2.976 4.16L41.296.8h-4.8l5.696 7.52V12h4.16z" fill="#E4E4E4" fill-rule="nonzero"/></svg>