<svg width="56" height="13" viewBox="0 0 56 13" xmlns="http://www.w3.org/2000/svg"><path d="M8.016 12.16c4.592 0 7.152-.784 7.152-3.872 0-2.928-2.736-3.232-7.152-3.408-2.432-.096-2.832-.08-2.832-.512s.4-.528 2.352-.528c2.032 0 2.992.128 2.992.72h4.16c0-2.864-2.464-3.92-6.832-3.92-4.416 0-6.832 1.056-6.832 3.52 0 2.608 1.936 3.44 6.992 3.6 2.624.08 2.992.144 2.992.624 0 .416-.368.576-2.832.576-2.64 0-3.152-.368-3.152-.912H.864c0 3.328 2.56 4.112 7.152 4.112zM23.728 12V4.32h4.8V.8h-13.76v3.52h4.8V12h4.16zm11.6.16c4.912 0 7.04-1.888 7.04-5.776 0-3.872-2.128-5.744-7.04-5.744-4.928 0-7.04 1.856-7.04 5.744 0 3.904 2.112 5.776 7.04 5.776zm0-3.52c-2.448 0-2.88-1.056-2.88-2.256 0-1.184.416-2.224 2.88-2.224s2.88 1.056 2.88 2.224c0 1.184-.432 2.256-2.88 2.256zM46.608 12V9.376h4.64c2.544 0 4.288-1.792 4.288-4.288C55.536 2.592 53.792.8 51.248.8h-8.8V12h4.16zm3.919-6.144h-3.919V4.32h3.84c.416 0 .928 0 .928.768 0 .72-.45.765-.849.768z" fill="#E4E4E4" fill-rule="nonzero"/></svg>